<svg width="48" height="48" viewBox="0 0 48 48" fill="none" xmlns="http://www.w3.org/2000/svg">
<path d="M24 48C37.2548 48 48 37.2548 48 24C48 10.7452 37.2548 0 24 0C10.7452 0 0 10.7452 0 24C0 37.2548 10.7452 48 24 48Z" fill="black"/>
<path d="M37.2882 15.7289C36.4746 16.1357 35.5255 16.2713 34.5763 16.5424C34.9831 16.4069 35.6611 15.7289 35.9323 15.3221C36.3391 14.7797 36.6102 14.373 36.7458 13.695V13.5594H36.6102C35.6611 14.1018 34.5763 14.5086 33.4916 14.7797C33.356 14.7797 33.356 14.7797 33.2204 14.7797C33.0848 14.6441 33.0848 14.6441 32.9492 14.5086C32.5424 14.1018 32.0001 13.8306 31.4577 13.5594C30.7797 13.2882 29.9662 13.1526 29.1526 13.1526C28.3391 13.1526 27.6611 13.4238 26.9831 13.8306C26.3052 14.2374 25.6272 14.6441 25.2204 15.3221C24.678 16.0001 24.4068 16.678 24.1357 17.4916C24.0001 18.3052 24.0001 18.9831 24.1357 19.7967C24.1357 19.9323 24.1357 19.9323 24.0001 19.9323C19.6611 19.2543 16.1357 17.7628 13.2882 14.5086C13.1526 14.373 13.1526 14.373 13.017 14.5086C11.5255 16.2713 12.2035 19.2543 13.8306 20.7458C14.1018 20.8814 14.2374 21.1526 14.5085 21.2882C14.373 21.2882 13.4238 21.1526 12.4746 20.7458C12.2035 20.7458 12.2035 20.7458 12.2035 20.8814C12.2035 21.1526 12.2035 21.2882 12.2035 21.5594C12.4746 23.4577 13.8306 25.2204 15.5933 25.8984C15.8645 26.034 16.0001 26.034 16.2713 26.1696C15.8645 26.3052 15.4577 26.3052 14.2374 26.1696C14.1018 26.1696 13.9662 26.1696 14.1018 26.3052C15.0509 28.7458 16.9492 29.4238 18.4407 29.8306C18.5763 29.8306 18.8475 29.8306 18.9831 29.9662C18.4407 30.6441 16.8136 31.1865 16.0001 31.4577C14.6441 32.0001 13.017 32.1357 11.5255 32.0001C11.2543 32.0001 11.2543 32.0001 11.1187 32.0001C11.1187 32.0001 11.1187 32.1357 11.2543 32.1357C11.5255 32.5424 11.9323 32.678 12.2035 32.9492C13.1526 33.4916 14.1018 33.8984 15.1865 34.1696C20.4746 35.6611 26.5763 34.5763 30.5085 30.6441C33.6272 27.5255 34.7119 23.1865 34.7119 18.8475C34.7119 18.7119 34.8475 18.5763 34.9831 18.4408C35.7967 17.7628 36.4746 17.0848 37.017 16.2713C37.2882 16.0001 37.2882 15.8645 37.2882 15.7289Z" fill="white"/>
</svg>
