<svg width="431" height="31" viewBox="0 0 431 31" fill="none" xmlns="http://www.w3.org/2000/svg">
<path d="M179.14 21V20.04H170.12V14.42L178.14 14.42V13.46L170.12 13.46V7.96L179.04 7.96V7L169.08 7V21H179.14ZM199.118 7H198.018L192.518 19.88L187.038 7L185.878 7L192.038 21.1H192.958L199.118 7ZM216.738 21V20.04H207.718V14.42H215.738V13.46H207.718V7.96L216.638 7.96V7L206.678 7V21H216.738ZM236.317 21V7H235.317V19.18L225.657 7L224.677 7V21H225.677V8.56L235.537 21H236.317ZM254.878 7.96V7L244.078 7V7.96L248.958 7.96V21H249.998V7.96L254.878 7.96ZM271.733 17.38V17.34C271.733 16.3133 271.373 15.5 270.653 14.9C269.933 14.2867 268.76 13.8133 267.133 13.48C266.307 13.3067 265.627 13.12 265.093 12.92C264.56 12.72 264.14 12.5 263.833 12.26C263.54 12.0067 263.333 11.7333 263.213 11.44C263.107 11.1333 263.053 10.7933 263.053 10.42V10.38C263.053 10.02 263.133 9.68 263.293 9.36C263.453 9.04 263.68 8.76 263.973 8.52C264.28 8.28 264.64 8.09333 265.053 7.96C265.48 7.81333 265.953 7.74 266.473 7.74C267.247 7.74 267.967 7.86 268.633 8.1C269.313 8.34 269.987 8.74667 270.653 9.32L271.313 8.5C270.607 7.92667 269.88 7.5 269.133 7.22C268.4 6.94 267.527 6.8 266.513 6.8C265.86 6.8 265.26 6.89333 264.713 7.08C264.167 7.26667 263.693 7.52667 263.293 7.86C262.893 8.19333 262.58 8.58667 262.353 9.04C262.127 9.48 262.013 9.96 262.013 10.48V10.52C262.013 11.0533 262.1 11.5267 262.273 11.94C262.447 12.3533 262.72 12.72 263.093 13.04C263.48 13.3467 263.973 13.62 264.573 13.86C265.173 14.0867 265.893 14.2867 266.733 14.46C267.533 14.62 268.187 14.8 268.693 15C269.2 15.1867 269.6 15.4 269.893 15.64C270.2 15.88 270.407 16.1467 270.513 16.44C270.633 16.7333 270.693 17.0667 270.693 17.44V17.48C270.693 17.88 270.607 18.2533 270.433 18.6C270.26 18.9333 270.02 19.2267 269.713 19.48C269.407 19.72 269.033 19.9133 268.593 20.06C268.153 20.1933 267.673 20.26 267.153 20.26C266.633 20.26 266.153 20.22 265.713 20.14C265.273 20.0467 264.853 19.92 264.453 19.76C264.053 19.5867 263.66 19.3733 263.273 19.12C262.9 18.8533 262.52 18.54 262.133 18.18L261.453 18.96C262.293 19.7067 263.16 20.2667 264.053 20.64C264.96 21.0133 265.973 21.2 267.093 21.2C267.773 21.2 268.393 21.1067 268.953 20.92C269.527 20.7333 270.013 20.4733 270.413 20.14C270.827 19.8067 271.147 19.4067 271.373 18.94C271.613 18.46 271.733 17.94 271.733 17.38Z" fill="black"/>
<g clip-path="url(#clip0)">
<path d="M13.622 16.2539L11.4055 20.1327C10.5744 20.9177 9.37377 21.3795 8.21937 21.4257C4.06351 21.4257 3.50939 17.5931 3.50939 13.8528C3.50939 11.3593 3.78645 9.60457 4.38674 8.40398C5.12556 6.97252 6.32614 6.2337 8.12702 6.2337C9.55848 6.2337 10.6205 6.92634 11.2208 7.52664L13.3449 11.1284H13.5296V6.049H13.3449L11.3594 7.06487C10.6667 6.46458 9.5123 5.81812 8.08084 5.81812C4.24821 5.86429 0 8.91192 0 13.8528C0 16.8081 1.43146 18.7013 2.67822 19.7172C4.20204 21.0563 6.23379 21.7951 8.26554 21.7951C10.0202 21.7951 11.3132 20.7792 11.6364 20.5483L13.7143 21.5642H13.899V16.2539H13.622ZM0.600291 16.7157C0.600291 16.6695 0.600291 16.6695 0.600291 16.7157C0.600291 16.6695 0.600291 16.6695 0.600291 16.7157ZM0.184705 14.961C0.184705 14.9148 0.184705 14.8225 0.184705 14.7763C0.138529 14.8225 0.138529 14.9148 0.184705 14.961Z" fill="#231F20"/>
<path d="M29.368 8.03478C27.8442 6.69567 25.8586 5.8645 24.0116 5.8645C22.1645 5.8645 20.1789 6.69567 18.6551 8.03478C16.9466 9.5586 16.0231 11.6365 16.0231 13.853C16.0231 16.0694 16.9466 18.1474 18.6551 19.6712C20.1789 21.0103 22.1645 21.8415 24.0116 21.8415C25.8586 21.8415 27.8442 21.0565 29.368 19.6712C31.0765 18.1474 32 16.0694 32 13.853C32 11.6365 31.0765 9.5586 29.368 8.03478ZM26.1357 6.69567C26.228 6.74185 26.3204 6.78803 26.4127 6.88038C26.5513 6.97273 26.6898 7.11126 26.8283 7.24979C27.798 8.21949 28.4907 10.1589 28.4907 13.853C28.4907 16.4389 28.2136 18.1936 27.6133 19.348C26.9207 20.7332 25.7201 21.4259 24.0116 21.4259C22.303 21.4259 21.1025 20.7332 20.4098 19.348C19.8095 18.1474 19.5325 16.3927 19.5325 13.853C19.5325 8.45037 20.8254 6.28009 24.0116 6.28009C24.5195 6.28009 25.0274 6.32626 25.4892 6.46479C25.7201 6.51097 25.951 6.60332 26.1357 6.69567Z" fill="#231F20"/>
<path d="M44.5138 6.09521V6.55698H46.4994V15.9308L39.7115 6.14139L39.6653 6.09521H33.5701V6.55698H35.5556V21.1487H33.5701V21.5642H38.003V21.1487H36.0636V6.69551L46.7303 21.7951L46.7765 21.8413H47.0074V6.55698H48.9929V6.09521H44.5138Z" fill="#231F20"/>
<path d="M64.8776 18.3779C64.9238 18.2856 64.9699 18.2394 65.0623 18.147C65.3393 17.7315 65.6164 17.3159 65.8011 16.8541C65.8473 16.7618 65.8473 16.7156 65.8935 16.6232C66.0782 16.1153 66.2167 15.5612 66.3091 15.0071C66.3091 14.9147 66.3091 14.8224 66.3552 14.73C66.4014 14.4068 66.4476 14.1297 66.4476 13.8065C66.4476 13.4832 66.4014 13.16 66.3552 12.883C66.3552 12.7906 66.3552 12.6982 66.3091 12.6059C66.2167 12.0518 66.0782 11.4977 65.9396 11.0359C65.8935 10.9436 65.8935 10.8512 65.8473 10.7588C65.6626 10.3433 65.4317 9.92767 65.1546 9.55826C65.0623 9.46591 65.0161 9.37356 64.9238 9.28121C64.6467 8.95797 64.3696 8.68092 64.0464 8.40386C63.9079 8.31151 63.8155 8.21915 63.677 8.1268C63.4923 7.98827 63.3538 7.84974 63.1691 7.75739C61.0911 6.51063 58.6438 6.32593 57.3509 6.32593H50.6091V6.64916H52.5485V21.3332H50.6091V21.6564H57.3509C58.3667 21.6564 60.9526 21.5179 63.1691 20.1326C63.3538 19.9941 63.4923 19.8556 63.677 19.717C63.8155 19.6247 63.9079 19.5323 64.0002 19.44C64.3235 19.0244 64.6467 18.7012 64.8776 18.3779ZM55.6423 6.51063H57.2585C59.1517 6.51063 60.6294 7.1571 61.5991 8.45003C62.5226 9.69679 62.9844 11.4977 62.9844 13.8527C62.9844 16.2076 62.5226 18.0085 61.5991 19.2553C60.6294 20.5482 59.1979 21.1947 57.2585 21.1947H55.6423V6.51063Z" fill="#231F20"/>
<path d="M81.4089 16.3003C81.3627 16.3465 80.1159 19.7174 78.823 21.195H73.1895V13.4374H76.0062C76.9298 14.1762 78.038 16.3465 78.038 16.3927V16.4389H78.2227V10.1589H78.038V10.2051C78.038 10.2051 76.9298 12.3754 76.0062 13.1604H73.1895V6.51098H78.2689C79.7465 7.48068 80.9933 10.2974 81.0395 10.3436V10.3898H81.2242V6.18774H68.1101V6.51098H70.0495V21.195H68.1101V21.5183H81.6859V16.3003H81.4089Z" fill="#231F20"/>
<path d="M78.2224 1.89323L78.5456 0.0923525L78.4071 0L73.6048 4.01733H73.5586L73.6509 4.20204L78.5918 3.00146H78.638L78.2224 1.89323Z" fill="#231F20"/>
<path d="M105.19 6.18774V6.4648H107.175V16.1618H107.129L100.203 6.18774H94.2458V6.4648H96.1853V21.2412H94.2458V21.4721H98.4941V21.2412H96.5085V6.4648H96.5547L107.406 21.7491H107.498V6.4648H109.484V6.18774H105.19Z" fill="#231F20"/>
<path d="M124.63 21.1488L117.749 5.67972L117.703 5.63354H117.472L110.915 21.1949H109.068V21.6567H113.316V21.1949H111.423L113.778 15.5614H118.58L121.074 21.1949H119.181V21.6567H126.477V21.1949H124.63V21.1488ZM118.396 15.0535H114.009L116.133 9.92794L118.396 15.0535Z" fill="#231F20"/>
<path d="M135.158 12.4677L132.156 11.4518C130.309 10.8515 129.478 10.0203 129.478 8.81975C129.478 7.20358 130.679 6.28005 132.71 6.28005C133.865 6.28005 134.65 6.60329 135.435 7.29593L137.559 10.8053H137.743V5.91064H137.605L135.573 6.92652C135.065 6.51094 134.188 5.91064 132.71 5.91064C129.894 5.91064 127.908 7.80387 127.862 10.5283C127.862 10.7592 127.954 10.99 127.954 11.2209C127.954 11.2671 127.954 11.3133 127.954 11.3594C128.231 12.7909 129.247 13.8068 131.048 14.4994L134.096 15.6077C135.758 16.2079 136.774 16.9006 136.774 18.4706C136.774 20.687 134.927 21.472 133.172 21.5182C131.925 21.5182 130.54 20.9641 129.755 20.1791L127.446 16.3003H127.261L127.354 21.6567V21.7029H127.492L129.57 20.5947C130.217 21.1488 131.648 21.9338 133.172 21.9338C134.742 21.9338 136.173 21.3797 137.189 20.41C138.159 19.4865 138.713 18.2397 138.713 16.9468C138.806 14.7303 137.651 13.2988 135.158 12.4677Z" fill="#231F20"/>
<path d="M140.191 6.14136V10.9437H140.376V10.8975C140.376 10.8513 141.807 7.89605 143.1 6.41841H145.686V21.1025H143.331V21.4257H151.227V21.1025H148.872V6.51077H151.458C152.751 7.94223 154.183 10.9437 154.183 10.9899V11.036H154.367V6.14136H140.191Z" fill="#231F20"/>
</g>
<defs>
<clipPath id="clip0">
<rect width="154.321" height="21.8414" fill="white"/>
</clipPath>
</defs>
</svg>
